<svg viewBox="0 0 168 28" fill="none" xmlns="http://www.w3.org/2000/svg" class="header_logo__d4jIK">
  <path d="M16.3 0H0v13.8c0 1.7.4 3.2 1 4.6A24.6 24.6 0 0 1 16.4 0Z" fill="var(--theme-secondary)"></path>
  <path d="M21.7 0h-2.8C13 2.2 5 10.6 8.1 25.5c2.5 1.5 4.7 2.3 4.7 2.3s2.4-1 5.2-2.8c-5.6-9-4.4-19.5 3.7-25Z" fill="var(--theme-secondary)"></path>
  <path d="M23.5 0c-5.5 4-6.3 13.4 0 19.9 1.2-1.8 2-3.8 2-6V0h-2Z" fill="var(--theme-secondary)"></path>
  <path d="M44.6 0H30v27.4h14.5c10.5 0 17-4.3 17-13.5v-.3C61.6 4.4 55 0 44.6 0Zm8.6 14c0 4.8-2.5 7.2-8.7 7.2h-6.3V6.4h6.3c6.2 0 8.7 2.3 8.7 7.2v.3Zm36-.4c2.4-.8 4.1-2.7 4.1-6 0-5.9-4.7-7.4-10.9-7.4h-19v27.3h8V17h10.3c2.6 0 3.8 1 3.8 3.4v7.1h8.1V20c0-3.5-1.7-5.6-4.5-6.4ZM81.5 11h-10V6h9.9c2.3 0 3.7.4 3.7 2.5 0 2-1.3 2.5-3.5 2.5ZM95.8.1v27.3h8.1V.1h-8Zm34.8 0-8.5 20-8.5-20h-8.9l12.4 27.3h9.7L139.2.1h-8.6ZM148 21.2v-4.8h18v-5.7h-18V6.2h18.8V.1H140v27.3h27v-6.2h-19Z" fill="var(--theme-secondary)"></path>
  <defs>
    <rect width="137" height="27.4" fill="white" transform="translate(30)"></rect>
  </defs>
</svg>